# File created by Blade
# Date/Time:  Wed Jan 21 18:34:41 2015
# Frame Rate: 120.000 fps
#------------------------------------------------------
:FULLY-SPECIFIED
:DEGREES
2116
root 2.537146 32.734171 -7.209510 42.439033 2.417427 1.050443
RightUpLeg -38.109499 -17.102501 8.297861
RightLeg -1.853904 -0.000000 0.000000
RightFoot -8.776477 -0.956754 22.421606
RightToeBase 21.402753 -0.000000 -0.000000
LeftUpLeg -39.238038 11.467556 -3.765728
LeftLeg 1.050182 -0.000000 -0.000000
LeftFoot -3.606048 -7.261119 -14.956191
LeftToeBase 3.432448 -0.000000 -0.000000
Spine -50.019943 -1.016471 -1.344290
RightShoulder -2.395272 48.855322 -44.462737
RightArm 39.935301 -30.919595 71.252528
RightForeArm 1.568096 -0.000000 3.572019
RightHand 7.133818 -0.000000 1.600104
RightHandThumb1 -24.326973 -0.000000 -32.862282
LeftShoulder 7.817420 -26.174368 38.727009
LeftArm 74.551299 19.510623 -51.522573
LeftForeArm 22.428168 -0.000000 4.708684
LeftHand -20.314030 -0.000000 -6.244671
LeftHandThumb1 -26.253704 0.000000 33.147579
Head 1.573491 -1.717183 6.810246
2117
root 2.537390 32.734286 -7.204833 42.419071 2.408018 1.052988
RightUpLeg -38.077441 -17.100371 8.281692
RightLeg -1.861858 -0.000000 0.000000
RightFoot -8.777284 -0.958339 22.407504
RightToeBase 21.419427 -0.000000 -0.000000
LeftUpLeg -39.202606 11.480866 -3.775353
LeftLeg 1.034822 -0.000000 -0.000000
LeftFoot -3.594801 -7.264291 -14.941197
LeftToeBase 3.394563 -0.000000 -0.000000
Spine -50.041142 -1.038067 -1.312329
RightShoulder -2.237467 49.080902 -44.400672
RightArm 39.932497 -30.945396 71.731248
RightForeArm 1.672480 -0.000000 3.787303
RightHand 7.134252 -0.000000 1.364338
RightHandThumb1 -24.326973 -0.000000 -32.862282
LeftShoulder 7.909583 -26.367123 38.728780
LeftArm 74.572915 19.703899 -51.965972
LeftForeArm 22.451072 -0.000000 4.812671
LeftHand -20.294728 -0.000000 -6.256548
LeftHandThumb1 -26.253704 0.000000 33.147579
Head 1.650938 -1.766545 6.773658
2118
root 2.536943 32.735019 -7.200739 42.404250 2.388658 1.059736
RightUpLeg -38.052443 -17.086808 8.248376
RightLeg -1.862635 -0.000000 0.000000
RightFoot -8.754575 -0.926729 22.498413
RightToeBase 21.330851 -0.000000 -0.000000
LeftUpLeg -39.187303 11.506119 -3.801607
LeftLeg 1.047921 -0.000000 -0.000000
LeftFoot -3.602634 -7.271222 -14.911478
LeftToeBase 3.403987 -0.000000 -0.000000
Spine -50.063495 -1.060486 -1.284445
RightShoulder -2.057822 49.278999 -44.308774
RightArm 39.909628 -30.905097 72.207603
RightForeArm 1.759195 -0.000000 4.046388
RightHand 7.208511 -0.000000 1.259530
RightHandThumb1 -24.326973 -0.000000 -32.862282
LeftShoulder 7.950028 -26.480806 38.735362
LeftArm 74.564607 19.814754 -52.458573
LeftForeArm 22.327005 -0.000000 5.162006
LeftHand -20.284472 -0.000000 -6.422567
LeftHandThumb1 -26.253704 0.000000 33.147579
Head 1.735037 -1.797844 6.723698
2119
root 2.535080 32.735211 -7.198177 42.387081 2.379539 1.053013
RightUpLeg -38.030928 -17.064576 8.232504
RightLeg -1.849798 -0.000000 0.000000
RightFoot -8.780681 -0.961734 22.431430
RightToeBase 21.384234 -0.000000 -0.000000
LeftUpLeg -39.173774 11.524326 -3.798843
LeftLeg 1.063914 -0.000000 -0.000000
LeftFoot -3.603381 -7.276529 -14.923182
LeftToeBase 3.382736 -0.000000 -0.000000
Spine -50.079130 -1.067952 -1.260267
RightShoulder -1.906437 49.442534 -44.221563
RightArm 39.908744 -30.869274 72.628200
RightForeArm 1.851651 -0.000000 4.312757
RightHand 7.260341 0.000000 1.238920
RightHandThumb1 -24.326973 -0.000000 -32.862282
LeftShoulder 8.025760 -26.565667 38.725442
LeftArm 74.689210 19.954604 -52.715853
LeftForeArm 22.170625 0.000000 5.344839
LeftHand -20.182368 0.000000 -6.311365
LeftHandThumb1 -26.253704 0.000000 33.147579
Head 1.790051 -1.847370 6.714364
2120
root 2.535686 32.735454 -7.192622 42.363605 2.353274 1.053863
RightUpLeg -37.997604 -17.054757 8.205412
RightLeg -1.847795 -0.000000 0.000000
RightFoot -8.786813 -0.947058 22.437927
RightToeBase 21.412946 -0.000000 -0.000000
LeftUpLeg -39.126736 11.532459 -3.798631
LeftLeg 1.046733 -0.000000 -0.000000
LeftFoot -3.612129 -7.264944 -14.934293
LeftToeBase 3.415675 -0.000000 -0.000000
Spine -50.093156 -1.063610 -1.252545
RightShoulder -1.783092 49.613228 -44.160107
RightArm 39.882490 -30.914726 73.019893
RightForeArm 1.682018 -0.000000 4.616929
RightHand 7.070498 -0.000000 1.198148
RightHandThumb1 -24.326973 -0.000000 -32.862282
LeftShoulder 8.053770 -26.606166 38.751666
LeftArm 74.725902 20.068631 -53.093257
LeftForeArm 22.161526 0.000000 5.736283
LeftHand -20.378458 -0.000000 -6.238297
LeftHandThumb1 -26.253704 0.000000 33.147579
Head 1.856909 -1.884579 6.685738
2121
root 2.536179 32.735612 -7.189229 42.351547 2.335839 1.060194
RightUpLeg -37.977578 -17.036274 8.174384
RightLeg -1.845251 -0.000000 0.000000
RightFoot -8.803884 -0.968615 22.442985
RightToeBase 21.434562 -0.000000 -0.000000
LeftUpLeg -39.111926 11.530658 -3.805987
LeftLeg 1.061769 -0.000000 -0.000000
LeftFoot -3.635176 -7.244999 -14.915346
LeftToeBase 3.434010 -0.000000 -0.000000
Spine -50.113344 -1.056108 -1.249692
RightShoulder -1.672720 49.736641 -44.100013
RightArm 40.002859 -31.036633 73.248825
RightForeArm 1.728776 -0.000000 4.801843
RightHand 7.264417 -0.000000 0.979613
RightHandThumb1 -24.326973 -0.000000 -32.862282
LeftShoulder 8.100933 -26.651836 38.724675
LeftArm 74.905117 20.255502 -53.149826
LeftForeArm 22.316571 0.000000 5.984865
LeftHand -20.420089 -0.000000 -5.981041
LeftHandThumb1 -26.253704 0.000000 33.147579
Head 1.920258 -1.931472 6.638644
2122
root 2.536035 32.735177 -7.185617 42.342496 2.318085 1.065542
RightUpLeg -37.961296 -17.024853 8.152321
RightLeg -1.845562 -0.000000 0.000000
RightFoot -8.818523 -0.972533 22.426125
RightToeBase 21.445345 -0.000000 -0.000000
LeftUpLeg -39.098952 11.535894 -3.814397
LeftLeg 1.073280 -0.000000 -0.000000
LeftFoot -3.637357 -7.237224 -14.915756
LeftToeBase 3.396251 -0.000000 -0.000000
Spine -50.133670 -1.048913 -1.250145
RightShoulder -1.566517 49.859834 -44.045879
RightArm 40.064034 -31.172835 73.432054
RightForeArm 1.642278 -0.000000 5.098744
RightHand 7.523535 -0.000000 0.877089
RightHandThumb1 -24.326973 -0.000000 -32.862282
LeftShoulder 8.117579 -26.645558 38.700564
LeftArm 75.113238 20.370700 -53.230806
LeftForeArm 22.397399 0.000000 6.214589
LeftHand -20.375399 -0.000000 -6.003485
LeftHandThumb1 -26.253704 0.000000 33.147579
Head 1.973785 -1.980713 6.602598
2123
root 2.534992 32.734940 -7.182926 42.332671 2.309862 1.063376
RightUpLeg -37.952815 -17.013602 8.141703
RightLeg -1.830307 -0.000000 0.000000
RightFoot -8.822189 -0.969435 22.428774
RightToeBase 21.410714 -0.000000 -0.000000
LeftUpLeg -39.086557 11.521099 -3.796361
LeftLeg 1.084830 -0.000000 -0.000000
LeftFoot -3.660720 -7.202212 -14.922247
LeftToeBase 3.397025 -0.000000 -0.000000
Spine -50.149863 -1.027406 -1.259951
RightShoulder -1.525997 49.975903 -44.042698
RightArm 40.082114 -31.232969 73.721871
RightForeArm 1.286451 -0.000000 5.283309
RightHand 7.596435 -0.000000 0.851657
RightHandThumb1 -24.326973 -0.000000 -32.862282
LeftShoulder 8.123846 -26.660080 38.682847
LeftArm 75.321668 20.521619 -53.212381
LeftForeArm 22.494041 0.000000 6.500611
LeftHand -20.375352 0.000000 -5.757376
LeftHandThumb1 -26.253704 0.000000 33.147579
Head 2.019903 -2.039502 6.565497
2124
root 2.533812 32.734277 -7.180455 42.325637 2.295700 1.062330
RightUpLeg -37.942865 -16.984983 8.113239
RightLeg -1.812566 -0.000000 0.000000
RightFoot -8.847808 -0.975619 22.434823
RightToeBase 21.428800 -0.000000 -0.000000
LeftUpLeg -39.076612 11.512997 -3.783117
LeftLeg 1.098514 -0.000000 -0.000000
LeftFoot -3.687988 -7.180875 -14.914759
LeftToeBase 3.406219 -0.000000 -0.000000
Spine -50.165732 -1.014801 -1.265862
RightShoulder -1.486550 50.079593 -44.011329
RightArm 40.299543 -31.641470 73.595609
RightForeArm 1.463328 -0.000000 5.494278
RightHand 7.557423 -0.000000 0.874434
RightHandThumb1 -24.326973 -0.000000 -32.862282
LeftShoulder 8.105579 -26.717786 38.659681
LeftArm 75.575071 20.748005 -53.000253
LeftForeArm 22.441717 -0.000000 6.701589
LeftHand -20.425652 0.000000 -5.579515
LeftHandThumb1 -26.253704 0.000000 33.147579
Head 2.062798 -2.083635 6.544467
2125
root 2.532284 32.733679 -7.177771 42.317369 2.291161 1.059152
RightUpLeg -37.933657 -16.982925 8.112114
RightLeg -1.804780 -0.000000 0.000000
RightFoot -8.853028 -0.957005 22.458538
RightToeBase 21.414414 -0.000000 -0.000000
LeftUpLeg -39.066940 11.498681 -3.761141
LeftLeg 1.114417 -0.000000 -0.000000
LeftFoot -3.702174 -7.156893 -14.915105
LeftToeBase 3.365704 -0.000000 -0.000000
Spine -50.179378 -0.988112 -1.288930
RightShoulder -1.493729 50.106049 -44.012070
RightArm 40.558017 -32.034736 73.427379
RightForeArm 1.497099 0.000000 5.665685
RightHand 7.724457 -0.000000 0.765390
RightHandThumb1 -24.326973 -0.000000 -32.862282
LeftShoulder 8.064679 -26.770920 38.637488
LeftArm 75.898524 20.959786 -52.677445
LeftForeArm 22.117111 -0.000000 6.995129
LeftHand -20.493021 -0.000000 -5.703636
LeftHandThumb1 -26.253704 0.000000 33.147579
Head 2.100021 -2.145169 6.527657
2126
root 2.531528 32.732539 -7.174928 42.307581 2.294069 1.062470
RightUpLeg -37.922862 -16.999179 8.118815
RightLeg -1.801081 -0.000000 0.000000
RightFoot -8.862254 -0.952094 22.454290
RightToeBase 21.397347 -0.000000 -0.000000
LeftUpLeg -39.057461 11.485045 -3.749313
LeftLeg 1.127852 -0.000000 -0.000000
LeftFoot -3.733641 -7.141954 -14.910206
LeftToeBase 3.435726 -0.000000 -0.000000
Spine -50.196554 -0.971958 -1.306484
RightShoulder -1.471289 50.184693 -43.999803
RightArm 40.575313 -32.147183 73.575839
RightForeArm 1.261439 -0.000000 5.812179
RightHand 7.706843 0.000000 0.777482
RightHandThumb1 -24.326973 -0.000000 -32.862282
LeftShoulder 8.043218 -26.800785 38.600523
LeftArm 76.070924 21.081932 -52.532434
LeftForeArm 21.980542 -0.000000 7.297766
LeftHand -20.350022 -0.000000 -5.776485
LeftHandThumb1 -26.253704 0.000000 33.147579
Head 2.152865 -2.213976 6.509369
2127
root 2.529671 32.731081 -7.172434 42.297231 2.300557 1.057533
RightUpLeg -37.905261 -16.996251 8.124094
RightLeg -1.803045 -0.000000 0.000000
RightFoot -8.874315 -0.958339 22.411670
RightToeBase 21.400508 -0.000000 -0.000000
LeftUpLeg -39.045165 11.483058 -3.733238
LeftLeg 1.133646 -0.000000 -0.000000
LeftFoot -3.741776 -7.148534 -14.906699
LeftToeBase 3.402377 -0.000000 -0.000000
Spine -50.208359 -0.954038 -1.325057
RightShoulder -1.457446 50.165847 -43.989166
RightArm 40.720727 -32.332906 73.533973
RightForeArm 1.181163 -0.000000 5.970029
RightHand 7.817514 -0.000000 0.780495
RightHandThumb1 -24.326973 -0.000000 -32.862282
LeftShoulder 8.049166 -26.831534 38.565488
LeftArm 76.317730 21.235786 -52.231102
LeftForeArm 22.090502 -0.000000 7.388057
LeftHand -20.132920 -0.000000 -5.584262
LeftHandThumb1 -26.253704 0.000000 33.147579
Head 2.198048 -2.291726 6.515136
2128
root 2.526822 32.729715 -7.169228 42.288489 2.322931 1.047307
RightUpLeg -37.886065 -17.002187 8.140790
RightLeg -1.805142 -0.000000 0.000000
RightFoot -8.864015 -0.925247 22.497267
RightToeBase 21.320830 -0.000000 -0.000000
LeftUpLeg -39.035810 11.465711 -3.691653
LeftLeg 1.146657 -0.000000 -0.000000
LeftFoot -3.773406 -7.146951 -14.916103
LeftToeBase 3.394432 -0.000000 -0.000000
Spine -50.224001 -0.929468 -1.360876
RightShoulder -1.498004 50.140203 -44.008477
RightArm 40.804498 -32.533599 73.487549
RightForeArm 1.187505 -0.000000 6.130543
RightHand 7.757345 -0.000000 0.737483
RightHandThumb1 -24.326973 -0.000000 -32.862282
LeftShoulder 8.046237 -26.913836 38.559941
LeftArm 76.499733 21.400990 -52.002468
LeftForeArm 22.007397 0.000000 7.659797
LeftHand -20.111444 -0.000000 -5.839814
LeftHandThumb1 -26.253704 0.000000 33.147579
Head 2.245431 -2.392547 6.551603
